<svg version="1.2" xmlns="http://www.w3.org/2000/svg" viewBox="0 0 260 150" width="260" height="150">
	<title>Novo Projeto</title>
	<style>
		.s0 { fill: #d6741b } 
		.s1 { fill: #ffffff } 
	</style>
	<path id="SHOW ME" class="s0" aria-label="SHOW ME"  d="m34.7 62h-10.4q0-2.1-1.4-3.5-1.4-1.5-3.6-2.7-2.2-1.3-4.6-2.7-2.5-1.5-4.7-3.4-2.1-1.9-3.5-4.6-1.4-2.7-1.4-6.6h10.5q0 2 1.3 3.5 1.4 1.5 3.6 2.8 2.2 1.3 4.6 2.7 2.5 1.4 4.7 3.3 2.2 1.9 3.5 4.6 1.4 2.7 1.4 6.6zm-19.1-23.4h-10.5q0-3.5 1.9-6.2 2-2.7 5.3-4.3 3.4-1.5 7.6-1.5v7.9q-2 0-3.2 1.1-1.1 1.1-1.1 3zm8.7 23.4h10.4q0 3.5-1.9 6.2-2 2.7-5.3 4.2-3.4 1.6-7.6 1.6v-7.9q2 0 3.2-1.1 1.2-1.1 1.2-3zm8.8-24.1l-9.2 1.6q-0.3-2.4-1.3-3.7-1.1-1.3-2.7-1.3v-7.9q3.6 0 6.3 1.3 2.8 1.3 4.6 3.8 1.7 2.6 2.3 6.2zm-28.3 22.3l9.4-1.6q0.2 3.5 1.7 5.5 1.5 2 4 2v7.9q-6.5 0-10.5-3.6-3.9-3.7-4.6-10.2zm59-5.9h-19.3v-7.9h19.3zm6.7 18.7h-10.5v-45.5h10.5zm-19.3 0h-10.5v-45.4h10.5zm56.1-12.2h-10.5v-21.1h10.5zm-19.1 0h-10.4v-21h10.4zm19.1-20.9h-10.5q0-2.5-1.2-3.9-1.1-1.4-3.1-1.4v-7.9q4.2 0 7.5 1.8 3.4 1.7 5.3 4.7 2 3 2 6.7zm-19.1 0h-10.4q0-3.7 1.9-6.7 2-3 5.3-4.7 3.4-1.8 7.6-1.8v7.9q-2 0-3.2 1.4-1.2 1.4-1.2 3.9zm8.6 20.9h10.5q0 3.8-2 6.8-1.9 2.9-5.3 4.7-3.3 1.7-7.5 1.7v-7.9q2 0 3.1-1.4 1.2-1.4 1.2-3.9zm-19 0h10.4q0 2.5 1.2 3.9 1.2 1.4 3.2 1.4v7.9q-4.2 0-7.6-1.7-3.3-1.8-5.3-4.7-1.9-3-1.9-6.8zm73.7 12.3h-8.8l-8.6-45.5h8.2zm-19.9 0h-10.1l-8.9-45.4h10.1zm2.2 0h-8.8l9.2-45.4h8.2zm21.2 0h-10.1l8.8-45.4h10.1zm52.1 0h-7.6l9.8-45.5h7.6zm-0.3 0h-7.5l-9.9-45.4h7.6zm-12.9 0h-10.5v-45.4h10.5zm29 0h-10.5v-45.5h10.5zm31.5 0h-16v-7.9h16zm-3.7-18.7h-12.3v-8h12.3zm-20.2 18.7v-45.4h10.4v45.4zm8.6-37.4v-8h14.8v8z"/>
	<path id="THE" class="s1" aria-label="THE"  d="m48.6 83.1h-9.7v-1.6h9.7zm-4 15.9h-1.7v-17.5h1.7zm14.2-7.9h-7.7v-1.6h7.7zm1.1 8h-1.6v-17.6l1.6 0.1zm-7.6 0h-1.7v-17.5h1.7zm18.6 0h-7.1v-1.6h7.1zm-1.5-7.9h-5.1v-1.6h5.1zm-6.2 7.8v-17.5h1.6v17.5zm0.9-15.9v-1.6h6.6v1.6z"/>
	<path id="&lt;/CODE&gt;" class="s1" aria-label="&lt;/CODE&gt;"  d="m98.7 96.9l-20 10.2v-6.1l20-10.1zm0 14.2v6.1l-20-10.2v-6zm8.8 10.8h-5.7l11.8-40.5h5.6zm22.4-10.2h-6.6v-20.1h6.6zm0-20h-6.6q0-3.3 1.5-5.8 1.5-2.5 4.2-3.9 2.8-1.5 6.2-1.5v5.4q-2.5 0-3.9 1.5-1.4 1.5-1.4 4.3zm-6.6 20h6.6q0 2.7 1.4 4.2 1.4 1.5 3.9 1.5v5.4q-3.4 0-6.2-1.4-2.7-1.4-4.2-3.9-1.5-2.5-1.5-5.8zm24.1-19.5l-6 1.1q-0.2-3.5-1.9-5.4-1.6-2-4.3-2v-5.4q5.2 0 8.4 3.1 3.3 3 3.8 8.6zm-6 17.9l6 1.1q-0.5 5.5-3.8 8.6-3.2 3-8.4 3v-5.4q2.7 0 4.3-1.9 1.7-2 1.9-5.4zm34.8 1.6h-6.7v-20.1h6.7zm-17.3 0h-6.6v-20.1h6.6zm17.3-20h-6.7q0-2.8-1.4-4.2-1.4-1.6-3.9-1.6v-5.3q3.5 0 6.2 1.4 2.7 1.4 4.2 3.9 1.6 2.5 1.6 5.8zm-17.3 0h-6.6q0-3.3 1.5-5.8 1.6-2.5 4.2-3.9 2.8-1.4 6.2-1.4v5.3q-2.5 0-3.9 1.6-1.4 1.4-1.4 4.2zm10.6 19.9h6.7q0 3.3-1.6 5.8-1.5 2.5-4.2 3.9-2.7 1.4-6.2 1.4v-5.4q2.5 0 3.9-1.5 1.4-1.5 1.4-4.2zm-17.2 0h6.6q0 2.7 1.4 4.2 1.4 1.5 3.9 1.5v5.4q-3.4 0-6.2-1.4-2.6-1.4-4.2-3.9-1.5-2.5-1.5-5.8zm52.6-0.8h-6.6v-18.3h6.6zm-11.9 11h-5.1v-5.4h5.1zm0-35.1h-5.1v-5.4h5.1zm0 0h-5.1v-5.3h5.1zm11.9 5.7h-6.6q0-2.7-1.4-4.2-1.4-1.5-3.9-1.5v-5.4q3.5 0 6.2 1.4 2.7 1.5 4.2 4 1.5 2.5 1.5 5.7zm-6.6 18.3h6.6q0 3.2-1.5 5.7-1.5 2.5-4.2 4-2.7 1.4-6.2 1.4v-5.4q2.5 0 3.9-1.5 1.4-1.5 1.4-4.2zm-9 11.1h-6.6v-40.5h6.6zm41.9 0h-15.4v-5.4h15.4zm-3.5-17.4h-11.3v-5.5h11.3zm-16.2 17.4v-40.4h6.6v40.4zm4.9-35.1v-5.3h14.2v5.3zm38.8 14.2v6l-20-10.1v-6.1zm0 6.1l-20 10.1v-6l20-10.2z"/>
</svg>